<svg xmlns="http://www.w3.org/2000/svg" width="1260" height="756" viewBox="0 0 1260 756">
<rect width="100%" height="100%" fill="#282b30"/>
<style>
text {
  font-family: "SFMono-Regular", "Cascadia Mono", "Liberation Mono", Menlo, Consolas, monospace;
  font-size: 15px;
  dominant-baseline: text-before-edge;
  white-space: pre;
}
</style>
<rect x="0" y="0" width="1260" height="18" fill="#282b30"/>
<rect x="0" y="18" width="135" height="18" fill="#282b30"/>
<rect x="135" y="18" width="171" height="18" fill="#406fdc"/>
<rect x="306" y="18" width="144" height="18" fill="#bcc1c9"/>
<rect x="450" y="18" width="810" height="18" fill="#282b30"/>
<rect x="0" y="36" width="1260" height="18" fill="#282b30"/>
<rect x="0" y="54" width="1260" height="18" fill="#282b30"/>
<rect x="0" y="72" width="1260" height="18" fill="#282b30"/>
<rect x="0" y="90" width="1260" height="18" fill="#282b30"/>
<rect x="0" y="108" width="1260" height="18" fill="#282b30"/>
<rect x="0" y="126" width="1260" height="18" fill="#282b30"/>
<rect x="0" y="144" width="882" height="18" fill="#282b30"/>
<rect x="882" y="144" width="369" height="18" fill="#ffc73d"/>
<rect x="1251" y="144" width="9" height="18" fill="#282b30"/>
<rect x="0" y="162" width="1260" height="18" fill="#282b30"/>
<rect x="0" y="180" width="1260" height="18" fill="#282b30"/>
<rect x="0" y="198" width="297" height="18" fill="#282b30"/>
<rect x="297" y="198" width="36" height="18" fill="#a3deae"/>
<rect x="333" y="198" width="927" height="18" fill="#282b30"/>
<rect x="0" y="216" width="270" height="18" fill="#282b30"/>
<rect x="270" y="216" width="72" height="18" fill="#a3deae"/>
<rect x="342" y="216" width="918" height="18" fill="#282b30"/>
<rect x="0" y="234" width="252" height="18" fill="#282b30"/>
<rect x="252" y="234" width="63" height="18" fill="#a3deae"/>
<rect x="315" y="234" width="36" height="18" fill="#7fd79a"/>
<rect x="351" y="234" width="909" height="18" fill="#282b30"/>
<rect x="0" y="252" width="234" height="18" fill="#282b30"/>
<rect x="234" y="252" width="27" height="18" fill="#a3dec2"/>
<rect x="261" y="252" width="27" height="18" fill="#a3deae"/>
<rect x="288" y="252" width="9" height="18" fill="#282b30"/>
<rect x="297" y="252" width="63" height="18" fill="#7fd79a"/>
<rect x="360" y="252" width="900" height="18" fill="#282b30"/>
<rect x="0" y="270" width="225" height="18" fill="#282b30"/>
<rect x="225" y="270" width="45" height="18" fill="#a3dec2"/>
<rect x="270" y="270" width="18" height="18" fill="#282b30"/>
<rect x="288" y="270" width="63" height="18" fill="#7fd79a"/>
<rect x="351" y="270" width="18" height="18" fill="#59d19d"/>
<rect x="369" y="270" width="891" height="18" fill="#282b30"/>
<rect x="0" y="288" width="225" height="18" fill="#282b30"/>
<rect x="225" y="288" width="36" height="18" fill="#a3dec2"/>
<rect x="261" y="288" width="63" height="18" fill="#7fd79a"/>
<rect x="324" y="288" width="45" height="18" fill="#59d19d"/>
<rect x="369" y="288" width="891" height="18" fill="#282b30"/>
<rect x="0" y="306" width="252" height="18" fill="#282b30"/>
<rect x="252" y="306" width="54" height="18" fill="#7fd79a"/>
<rect x="306" y="306" width="72" height="18" fill="#59d19d"/>
<rect x="378" y="306" width="882" height="18" fill="#282b30"/>
<rect x="0" y="324" width="243" height="18" fill="#282b30"/>
<rect x="243" y="324" width="45" height="18" fill="#7fd7ce"/>
<rect x="288" y="324" width="9" height="18" fill="#7fd79a"/>
<rect x="297" y="324" width="54" height="18" fill="#59d19d"/>
<rect x="351" y="324" width="9" height="18" fill="#ffffff"/>
<rect x="360" y="324" width="9" height="18" fill="#282b30"/>
<rect x="369" y="324" width="18" height="18" fill="#ffc73d"/>
<rect x="387" y="324" width="135" height="18" fill="#282b30"/>
<rect x="522" y="324" width="18" height="18" fill="#d1b559"/>
<rect x="540" y="324" width="720" height="18" fill="#282b30"/>
<rect x="0" y="342" width="243" height="18" fill="#282b30"/>
<rect x="243" y="342" width="45" height="18" fill="#7fd7ce"/>
<rect x="288" y="342" width="54" height="18" fill="#59d19d"/>
<rect x="342" y="342" width="54" height="18" fill="#ffc73d"/>
<rect x="396" y="342" width="90" height="18" fill="#282b30"/>
<rect x="486" y="342" width="9" height="18" fill="#cfb130"/>
<rect x="495" y="342" width="9" height="18" fill="#282b30"/>
<rect x="504" y="342" width="9" height="18" fill="#d1b559"/>
<rect x="513" y="342" width="9" height="18" fill="#d1ae59"/>
<rect x="522" y="342" width="18" height="18" fill="#d1a859"/>
<rect x="540" y="342" width="720" height="18" fill="#282b30"/>
<rect x="0" y="360" width="234" height="18" fill="#282b30"/>
<rect x="234" y="360" width="45" height="18" fill="#7fd7ce"/>
<rect x="279" y="360" width="45" height="18" fill="#59d19d"/>
<rect x="324" y="360" width="9" height="18" fill="#282b30"/>
<rect x="333" y="360" width="45" height="18" fill="#ffc73d"/>
<rect x="378" y="360" width="9" height="18" fill="#ffffff"/>
<rect x="387" y="360" width="54" height="18" fill="#0f0f13"/>
<rect x="441" y="360" width="27" height="18" fill="#282b30"/>
<rect x="468" y="360" width="18" height="18" fill="#cfb130"/>
<rect x="486" y="360" width="9" height="18" fill="#cf8b30"/>
<rect x="495" y="360" width="18" height="18" fill="#282b30"/>
<rect x="513" y="360" width="9" height="18" fill="#d19f59"/>
<rect x="522" y="360" width="9" height="18" fill="#282b30"/>
<rect x="531" y="360" width="18" height="18" fill="#d19359"/>
<rect x="549" y="360" width="711" height="18" fill="#282b30"/>
<rect x="0" y="378" width="234" height="18" fill="#282b30"/>
<rect x="234" y="378" width="45" height="18" fill="#7fd7ce"/>
<rect x="279" y="378" width="45" height="18" fill="#59d19d"/>
<rect x="324" y="378" width="9" height="18" fill="#302608"/>
<rect x="333" y="378" width="36" height="18" fill="#ffc73d"/>
<rect x="369" y="378" width="99" height="18" fill="#0f0f13"/>
<rect x="468" y="378" width="36" height="18" fill="#cf8b30"/>
<rect x="504" y="378" width="9" height="18" fill="#282b30"/>
<rect x="513" y="378" width="9" height="18" fill="#d18959"/>
<rect x="522" y="378" width="9" height="18" fill="#282b30"/>
<rect x="531" y="378" width="18" height="18" fill="#d18259"/>
<rect x="549" y="378" width="711" height="18" fill="#282b30"/>
<rect x="0" y="396" width="225" height="18" fill="#282b30"/>
<rect x="225" y="396" width="45" height="18" fill="#7fd7ce"/>
<rect x="270" y="396" width="9" height="18" fill="#282b30"/>
<rect x="279" y="396" width="45" height="18" fill="#59d19d"/>
<rect x="324" y="396" width="36" height="18" fill="#ffc73d"/>
<rect x="360" y="396" width="9" height="18" fill="#302608"/>
<rect x="369" y="396" width="99" height="18" fill="#0f0f13"/>
<rect x="468" y="396" width="45" height="18" fill="#cf5230"/>
<rect x="513" y="396" width="9" height="18" fill="#d17759"/>
<rect x="522" y="396" width="9" height="18" fill="#282b30"/>
<rect x="531" y="396" width="27" height="18" fill="#d17759"/>
<rect x="558" y="396" width="702" height="18" fill="#282b30"/>
<rect x="0" y="414" width="279" height="18" fill="#282b30"/>
<rect x="279" y="414" width="45" height="18" fill="#59a8d1"/>
<rect x="324" y="414" width="9" height="18" fill="#302608"/>
<rect x="333" y="414" width="36" height="18" fill="#ffc73d"/>
<rect x="369" y="414" width="99" height="18" fill="#0f0f13"/>
<rect x="468" y="414" width="36" height="18" fill="#cf3054"/>
<rect x="504" y="414" width="9" height="18" fill="#cf5230"/>
<rect x="513" y="414" width="45" height="18" fill="#d16559"/>
<rect x="558" y="414" width="702" height="18" fill="#282b30"/>
<rect x="0" y="432" width="279" height="18" fill="#282b30"/>
<rect x="279" y="432" width="54" height="18" fill="#59a8d1"/>
<rect x="333" y="432" width="45" height="18" fill="#ffc73d"/>
<rect x="378" y="432" width="9" height="18" fill="#6b30cf"/>
<rect x="387" y="432" width="63" height="18" fill="#0f0f13"/>
<rect x="450" y="432" width="9" height="18" fill="#cf30b1"/>
<rect x="459" y="432" width="45" height="18" fill="#cf3054"/>
<rect x="504" y="432" width="9" height="18" fill="#282b30"/>
<rect x="513" y="432" width="27" height="18" fill="#d15966"/>
<rect x="540" y="432" width="18" height="18" fill="#d1595c"/>
<rect x="558" y="432" width="702" height="18" fill="#282b30"/>
<rect x="0" y="450" width="288" height="18" fill="#282b30"/>
<rect x="288" y="450" width="18" height="18" fill="#5984d1"/>
<rect x="306" y="450" width="9" height="18" fill="#282b30"/>
<rect x="315" y="450" width="27" height="18" fill="#5984d1"/>
<rect x="342" y="450" width="18" height="18" fill="#ffc73d"/>
<rect x="360" y="450" width="63" height="18" fill="#6b30cf"/>
<rect x="423" y="450" width="9" height="18" fill="#282b30"/>
<rect x="432" y="450" width="54" height="18" fill="#cf30b1"/>
<rect x="486" y="450" width="9" height="18" fill="#cf3054"/>
<rect x="495" y="450" width="9" height="18" fill="#282b30"/>
<rect x="504" y="450" width="9" height="18" fill="#d15986"/>
<rect x="513" y="450" width="36" height="18" fill="#d15973"/>
<rect x="549" y="450" width="711" height="18" fill="#282b30"/>
<rect x="0" y="468" width="297" height="18" fill="#282b30"/>
<rect x="297" y="468" width="27" height="18" fill="#5984d1"/>
<rect x="324" y="468" width="18" height="18" fill="#596dd1"/>
<rect x="342" y="468" width="9" height="18" fill="#6159d1"/>
<rect x="351" y="468" width="9" height="18" fill="#282b30"/>
<rect x="360" y="468" width="72" height="18" fill="#6b30cf"/>
<rect x="432" y="468" width="54" height="18" fill="#cf30b1"/>
<rect x="486" y="468" width="18" height="18" fill="#d15998"/>
<rect x="504" y="468" width="36" height="18" fill="#d15986"/>
<rect x="540" y="468" width="720" height="18" fill="#282b30"/>
<rect x="0" y="486" width="306" height="18" fill="#282b30"/>
<rect x="306" y="486" width="18" height="18" fill="#596dd1"/>
<rect x="324" y="486" width="54" height="18" fill="#6159d1"/>
<rect x="378" y="486" width="9" height="18" fill="#8759d1"/>
<rect x="387" y="486" width="45" height="18" fill="#6b30cf"/>
<rect x="432" y="486" width="18" height="18" fill="#cf30b1"/>
<rect x="450" y="486" width="9" height="18" fill="#282b30"/>
<rect x="459" y="486" width="18" height="18" fill="#d159cb"/>
<rect x="477" y="486" width="27" height="18" fill="#d159a8"/>
<rect x="504" y="486" width="18" height="18" fill="#d15998"/>
<rect x="522" y="486" width="738" height="18" fill="#282b30"/>
<rect x="0" y="504" width="315" height="18" fill="#282b30"/>
<rect x="315" y="504" width="9" height="18" fill="#7f7fd7"/>
<rect x="324" y="504" width="45" height="18" fill="#6159d1"/>
<rect x="369" y="504" width="36" height="18" fill="#8759d1"/>
<rect x="405" y="504" width="18" height="18" fill="#a559d1"/>
<rect x="423" y="504" width="9" height="18" fill="#b759d1"/>
<rect x="432" y="504" width="9" height="18" fill="#282b30"/>
<rect x="441" y="504" width="54" height="18" fill="#d159cb"/>
<rect x="495" y="504" width="18" height="18" fill="#d159a8"/>
<rect x="513" y="504" width="9" height="18" fill="#d77fb5"/>
<rect x="522" y="504" width="738" height="18" fill="#282b30"/>
<rect x="0" y="522" width="297" height="18" fill="#282b30"/>
<rect x="297" y="522" width="36" height="18" fill="#7f7fd7"/>
<rect x="333" y="522" width="18" height="18" fill="#8e7fd7"/>
<rect x="351" y="522" width="9" height="18" fill="#6159d1"/>
<rect x="360" y="522" width="36" height="18" fill="#8759d1"/>
<rect x="396" y="522" width="27" height="18" fill="#a559d1"/>
<rect x="423" y="522" width="18" height="18" fill="#b759d1"/>
<rect x="441" y="522" width="45" height="18" fill="#d159cb"/>
<rect x="486" y="522" width="18" height="18" fill="#282b30"/>
<rect x="504" y="522" width="9" height="18" fill="#d77fbb"/>
<rect x="513" y="522" width="9" height="18" fill="#282b30"/>
<rect x="522" y="522" width="9" height="18" fill="#d77fb5"/>
<rect x="531" y="522" width="729" height="18" fill="#282b30"/>
<rect x="0" y="540" width="297" height="18" fill="#282b30"/>
<rect x="297" y="540" width="27" height="18" fill="#7f7fd7"/>
<rect x="324" y="540" width="27" height="18" fill="#8e7fd7"/>
<rect x="351" y="540" width="45" height="18" fill="#282b30"/>
<rect x="396" y="540" width="18" height="18" fill="#b47fd7"/>
<rect x="414" y="540" width="99" height="18" fill="#282b30"/>
<rect x="513" y="540" width="27" height="18" fill="#d77fbb"/>
<rect x="540" y="540" width="720" height="18" fill="#282b30"/>
<rect x="0" y="558" width="324" height="18" fill="#282b30"/>
<rect x="324" y="558" width="18" height="18" fill="#8e7fd7"/>
<rect x="342" y="558" width="54" height="18" fill="#282b30"/>
<rect x="396" y="558" width="18" height="18" fill="#b47fd7"/>
<rect x="414" y="558" width="846" height="18" fill="#282b30"/>
<rect x="0" y="576" width="396" height="18" fill="#282b30"/>
<rect x="396" y="576" width="18" height="18" fill="#b47fd7"/>
<rect x="414" y="576" width="846" height="18" fill="#282b30"/>
<rect x="0" y="594" width="1260" height="18" fill="#282b30"/>
<rect x="0" y="612" width="1260" height="18" fill="#282b30"/>
<rect x="0" y="630" width="1260" height="18" fill="#282b30"/>
<rect x="0" y="648" width="1260" height="18" fill="#282b30"/>
<rect x="0" y="666" width="1260" height="18" fill="#282b30"/>
<rect x="0" y="684" width="1260" height="18" fill="#282b30"/>
<rect x="0" y="702" width="1260" height="18" fill="#282b30"/>
<rect x="0" y="720" width="1260" height="18" fill="#282b30"/>
<rect x="0" y="738" width="1260" height="18" fill="#282b30"/>
<text x="27" y="20" fill="#ffffff" font-weight="700">Dustbunny</text>
<text x="144" y="20" fill="#ffffff" font-weight="700">Disks</text>
<text x="198" y="20" fill="#ffffff" font-weight="700">and</text>
<text x="234" y="20" fill="#ffffff" font-weight="700">Folders</text>
<text x="315" y="20" fill="#24272c">DustBunny</text>
<text x="405" y="20" fill="#24272c">Demo</text>
<text x="27" y="38" fill="#989ca4">DustBunny</text>
<text x="117" y="38" fill="#989ca4">Demo</text>
<text x="180" y="38" fill="#989ca4">/Volumes/DustBunny</text>
<text x="351" y="38" fill="#989ca4">Demo</text>
<text x="27" y="74" fill="#62666e">map</text>
<text x="873" y="74" fill="#3e4148">│</text>
<text x="873" y="92" fill="#3e4148">│</text>
<text x="873" y="110" fill="#3e4148">│</text>
<text x="900" y="110" fill="#ffffff">DustBunny</text>
<text x="990" y="110" fill="#ffffff">Demo</text>
<text x="1188" y="110" fill="#ffffff">512</text>
<text x="1224" y="110" fill="#ffffff">GB</text>
<text x="873" y="128" fill="#3e4148">│</text>
<text x="873" y="146" fill="#3e4148">│</text>
<text x="900" y="146" fill="#302608" font-weight="700">▶</text>
<text x="918" y="146" fill="#302608" font-weight="700">Users</text>
<text x="1188" y="146" fill="#302608" font-weight="700">198</text>
<text x="1224" y="146" fill="#302608" font-weight="700">GB</text>
<text x="873" y="164" fill="#3e4148">│</text>
<text x="900" y="164" fill="#6b30cf">●</text>
<text x="918" y="164" fill="#e6e8ec">Projects</text>
<text x="1197" y="164" fill="#e6e8ec">96</text>
<text x="1224" y="164" fill="#e6e8ec">GB</text>
<text x="315" y="182" fill="#a3deae">▄▄</text>
<text x="873" y="182" fill="#3e4148">│</text>
<text x="900" y="182" fill="#cf30b1">●</text>
<text x="918" y="182" fill="#e6e8ec">Containers</text>
<text x="1197" y="182" fill="#e6e8ec">72</text>
<text x="1224" y="182" fill="#e6e8ec">GB</text>
<text x="288" y="200" fill="#a3deae">▄</text>
<text x="333" y="200" fill="#a3deae">▄</text>
<text x="873" y="200" fill="#3e4148">│</text>
<text x="900" y="200" fill="#cf3054">●</text>
<text x="918" y="200" fill="#e6e8ec">Applications</text>
<text x="1197" y="200" fill="#e6e8ec">48</text>
<text x="1224" y="200" fill="#e6e8ec">GB</text>
<text x="261" y="218" fill="#a3deae">▄</text>
<text x="342" y="218" fill="#a3deae">▄</text>
<text x="873" y="218" fill="#3e4148">│</text>
<text x="900" y="218" fill="#cf5230">●</text>
<text x="918" y="218" fill="#e6e8ec">System</text>
<text x="1197" y="218" fill="#e6e8ec">42</text>
<text x="1224" y="218" fill="#e6e8ec">GB</text>
<text x="243" y="236" fill="#a3deae">▄</text>
<text x="315" y="236" fill="#a3deae">▀▀</text>
<text x="873" y="236" fill="#3e4148">│</text>
<text x="900" y="236" fill="#cf8b30">●</text>
<text x="918" y="236" fill="#e6e8ec">Media</text>
<text x="972" y="236" fill="#e6e8ec">Cache</text>
<text x="1197" y="236" fill="#e6e8ec">31</text>
<text x="1224" y="236" fill="#e6e8ec">GB</text>
<text x="252" y="254" fill="#a3deae">▀</text>
<text x="288" y="254" fill="#a3deae">▀</text>
<text x="297" y="254" fill="#a3deae">▀</text>
<text x="873" y="254" fill="#3e4148">│</text>
<text x="900" y="254" fill="#cfb130">●</text>
<text x="918" y="254" fill="#e6e8ec">Library</text>
<text x="1197" y="254" fill="#e6e8ec">18</text>
<text x="1224" y="254" fill="#e6e8ec">GB</text>
<text x="216" y="272" fill="#a3dec2">▄</text>
<text x="270" y="272" fill="#a3deae">▀</text>
<text x="279" y="272" fill="#7fd79a">▄</text>
<text x="351" y="272" fill="#7fd79a">▀▀</text>
<text x="873" y="272" fill="#3e4148">│</text>
<text x="900" y="272" fill="#cfc430">●</text>
<text x="918" y="272" fill="#e6e8ec">hidden</text>
<text x="981" y="272" fill="#e6e8ec">space</text>
<text x="1188" y="272" fill="#e6e8ec">7.0</text>
<text x="1224" y="272" fill="#e6e8ec">GB</text>
<text x="216" y="290" fill="#a3dec2">▀</text>
<text x="261" y="290" fill="#a3dec2">▀</text>
<text x="324" y="290" fill="#7fd79a">▀</text>
<text x="369" y="290" fill="#59d19d">▄</text>
<text x="873" y="290" fill="#3e4148">│</text>
<text x="243" y="308" fill="#a3dec2">▀</text>
<text x="306" y="308" fill="#7fd79a">▀</text>
<text x="378" y="308" fill="#ffffff">▄</text>
<text x="513" y="308" fill="#d1cb59">▄</text>
<text x="522" y="308" fill="#d1c859">▄</text>
<text x="549" y="308" fill="#d7c57f">▄</text>
<text x="558" y="308" fill="#d7c37f">▄</text>
<text x="567" y="308" fill="#d7c07f">▄</text>
<text x="873" y="308" fill="#3e4148">│</text>
<text x="900" y="308" fill="#3e4148">─────────────────────────────────────</text>
<text x="270" y="326" fill="#7fd79a">▀▀</text>
<text x="351" y="326" fill="#59d19d">▀</text>
<text x="360" y="326" fill="#ffc73d">▄</text>
<text x="369" y="326" fill="#302608">▀▀</text>
<text x="504" y="326" fill="#d1cb59">▀</text>
<text x="513" y="326" fill="#d1be59">▄</text>
<text x="522" y="326" fill="#d1be59">▀▀</text>
<text x="540" y="326" fill="#d7c37f">▀</text>
<text x="549" y="326" fill="#d7c07f">▀▀</text>
<text x="873" y="326" fill="#3e4148">│</text>
<text x="234" y="344" fill="#7fd7ce">▄</text>
<text x="342" y="344" fill="#ffffff">▀</text>
<text x="387" y="344" fill="#302608">▀</text>
<text x="477" y="344" fill="#cfc430">▄</text>
<text x="486" y="344" fill="#cfc430">▀</text>
<text x="495" y="344" fill="#d1c359">▀</text>
<text x="504" y="344" fill="#d1be59">▀</text>
<text x="513" y="344" fill="#d1b559">▀</text>
<text x="522" y="344" fill="#d1b559">▀</text>
<text x="531" y="344" fill="#d1ae59">▀</text>
<text x="540" y="344" fill="#d1a859">▀</text>
<text x="873" y="344" fill="#3e4148">│</text>
<text x="900" y="344" fill="#62666e">selected</text>
<text x="324" y="362" fill="#59d19d">▀</text>
<text x="333" y="362" fill="#302608">▀</text>
<text x="378" y="362" fill="#ffc73d">▀</text>
<text x="387" y="362" fill="#302608">▀</text>
<text x="441" y="362" fill="#0f0f13">▄</text>
<text x="459" y="362" fill="#cfb130">▄</text>
<text x="468" y="362" fill="#cfc430">▀</text>
<text x="486" y="362" fill="#cfb130">▀</text>
<text x="495" y="362" fill="#cf8b30">▄</text>
<text x="504" y="362" fill="#d1a859">▀</text>
<text x="513" y="362" fill="#d1a859">▀</text>
<text x="522" y="362" fill="#d19f59">▀</text>
<text x="531" y="362" fill="#d19f59">▀▀</text>
<text x="549" y="362" fill="#d19359">▄</text>
<text x="873" y="362" fill="#3e4148">│</text>
<text x="900" y="362" fill="#ffffff" font-weight="700">Users</text>
<text x="225" y="380" fill="#7fd7ce">▄</text>
<text x="324" y="380" fill="#ffffff">▀</text>
<text x="369" y="380" fill="#302608">▀</text>
<text x="459" y="380" fill="#cfb130">▀</text>
<text x="504" y="380" fill="#cf8b30">▀</text>
<text x="513" y="380" fill="#d19359">▀</text>
<text x="522" y="380" fill="#d19359">▀</text>
<text x="531" y="380" fill="#d19359">▀▀</text>
<text x="549" y="380" fill="#d18259">▄</text>
<text x="873" y="380" fill="#3e4148">│</text>
<text x="900" y="380" fill="#989ca4">[D]</text>
<text x="945" y="380" fill="#e6e8ec">198</text>
<text x="981" y="380" fill="#e6e8ec">GB</text>
<text x="270" y="398" fill="#7fd7ce">▀</text>
<text x="360" y="398" fill="#ffc73d">▀</text>
<text x="405" y="398" fill="#ffffff" font-weight="700">512</text>
<text x="513" y="398" fill="#d18259">▀</text>
<text x="522" y="398" fill="#d17759">▄</text>
<text x="873" y="398" fill="#3e4148">│</text>
<text x="900" y="398" fill="#989ca4">8</text>
<text x="918" y="398" fill="#989ca4">items</text>
<text x="324" y="416" fill="#ffc73d">▀</text>
<text x="414" y="416" fill="#989ca4">GB</text>
<text x="468" y="416" fill="#cf5230">▀▀▀▀</text>
<text x="873" y="416" fill="#3e4148">│</text>
<text x="900" y="416" fill="#62666e">/Volumes/DustBunny</text>
<text x="1071" y="416" fill="#62666e">Demo/Users</text>
<text x="324" y="434" fill="#ffffff">▀</text>
<text x="369" y="434" fill="#302608">▀</text>
<text x="378" y="434" fill="#0f0f13">▀</text>
<text x="450" y="434" fill="#0f0f13">▀</text>
<text x="504" y="434" fill="#cf3054">▀</text>
<text x="513" y="434" fill="#d1595c">▀▀▀</text>
<text x="540" y="434" fill="#d16559">▀▀</text>
<text x="873" y="434" fill="#3e4148">│</text>
<text x="279" y="452" fill="#59a8d1">▀</text>
<text x="288" y="452" fill="#59a8d1">▀▀</text>
<text x="306" y="452" fill="#5984d1">▄</text>
<text x="333" y="452" fill="#302608">▀</text>
<text x="360" y="452" fill="#ffc73d">▀</text>
<text x="396" y="452" fill="#0f0f13">▀▀▀</text>
<text x="423" y="452" fill="#0f0f13">▀</text>
<text x="432" y="452" fill="#0f0f13">▀</text>
<text x="477" y="452" fill="#cf3054">▀</text>
<text x="495" y="452" fill="#cf3054">▀</text>
<text x="504" y="452" fill="#d15973">▀</text>
<text x="531" y="452" fill="#d15966">▀▀</text>
<text x="549" y="452" fill="#d15966">▀</text>
<text x="873" y="452" fill="#3e4148">│</text>
<text x="288" y="470" fill="#5984d1">▀</text>
<text x="324" y="470" fill="#5984d1">▀</text>
<text x="342" y="470" fill="#ffffff">▀</text>
<text x="351" y="470" fill="#6b30cf">▀</text>
<text x="486" y="470" fill="#cf30b1">▀</text>
<text x="495" y="470" fill="#d15986">▀</text>
<text x="531" y="470" fill="#d15973">▀</text>
<text x="540" y="470" fill="#d15973">▀</text>
<text x="873" y="470" fill="#3e4148">│</text>
<text x="297" y="488" fill="#5984d1">▀</text>
<text x="324" y="488" fill="#596dd1">▀</text>
<text x="369" y="488" fill="#6b30cf">▀</text>
<text x="378" y="488" fill="#6b30cf">▀</text>
<text x="450" y="488" fill="#cf30b1">▀</text>
<text x="459" y="488" fill="#cf30b1">▀</text>
<text x="495" y="488" fill="#d15998">▀</text>
<text x="513" y="488" fill="#d15986">▀</text>
<text x="522" y="488" fill="#d15986">▀▀</text>
<text x="873" y="488" fill="#3e4148">│</text>
<text x="306" y="506" fill="#7f7fd7">▄</text>
<text x="315" y="506" fill="#6159d1">▀</text>
<text x="432" y="506" fill="#d159cb">▀</text>
<text x="486" y="506" fill="#d159a8">▀</text>
<text x="513" y="506" fill="#d15998">▀</text>
<text x="873" y="506" fill="#3e4148">│</text>
<text x="288" y="524" fill="#7f7fd7">▄</text>
<text x="333" y="524" fill="#6159d1">▀▀</text>
<text x="486" y="524" fill="#d159cb">▀</text>
<text x="495" y="524" fill="#d159a8">▀</text>
<text x="513" y="524" fill="#d77fbb">▄</text>
<text x="873" y="524" fill="#3e4148">│</text>
<text x="288" y="542" fill="#7f7fd7">▀</text>
<text x="369" y="542" fill="#8759d1">▀▀▀</text>
<text x="396" y="542" fill="#a559d1">▀▀</text>
<text x="414" y="542" fill="#a559d1">▀</text>
<text x="423" y="542" fill="#b759d1">▀▀</text>
<text x="441" y="542" fill="#d159cb">▀▀▀</text>
<text x="531" y="542" fill="#d77fb5">▀</text>
<text x="873" y="542" fill="#3e4148">│</text>
<text x="306" y="560" fill="#7f7fd7">▀</text>
<text x="315" y="560" fill="#8e7fd7">▀</text>
<text x="522" y="560" fill="#d77fbb">▀</text>
<text x="873" y="560" fill="#3e4148">│</text>
<text x="387" y="578" fill="#b47fd7">▄</text>
<text x="873" y="578" fill="#3e4148">│</text>
<text x="405" y="596" fill="#b47fd7">▀</text>
<text x="423" y="596" fill="#bd7fd7">▀</text>
<text x="873" y="596" fill="#3e4148">│</text>
<text x="873" y="614" fill="#3e4148">│</text>
<text x="873" y="632" fill="#3e4148">│</text>
<text x="873" y="650" fill="#3e4148">│</text>
<text x="873" y="668" fill="#3e4148">│</text>
<text x="36" y="686" fill="#62666e">◎</text>
<text x="72" y="686" fill="#62666e">drag</text>
<text x="117" y="686" fill="#62666e">and</text>
<text x="153" y="686" fill="#62666e">drop</text>
<text x="198" y="686" fill="#62666e">files</text>
<text x="252" y="686" fill="#62666e">here</text>
<text x="297" y="686" fill="#62666e">to</text>
<text x="324" y="686" fill="#62666e">collect</text>
<text x="396" y="686" fill="#62666e">them</text>
<text x="873" y="686" fill="#3e4148">│</text>
<text x="900" y="686" fill="#62666e">list</text>
<text x="945" y="686" fill="#62666e">focus</text>
<text x="873" y="704" fill="#3e4148">│</text>
<text x="27" y="722" fill="#989ca4">q</text>
<text x="45" y="722" fill="#989ca4">quit</text>
<text x="108" y="722" fill="#989ca4">enter</text>
<text x="162" y="722" fill="#989ca4">drill</text>
<text x="234" y="722" fill="#989ca4">backspace</text>
<text x="324" y="722" fill="#989ca4">parent</text>
<text x="405" y="722" fill="#989ca4">arrows</text>
<text x="468" y="722" fill="#989ca4">select</text>
<text x="549" y="722" fill="#989ca4">tab</text>
<text x="585" y="722" fill="#989ca4">focus</text>
<text x="657" y="722" fill="#989ca4">r</text>
<text x="675" y="722" fill="#989ca4">rescan</text>
<text x="756" y="722" fill="#989ca4">o</text>
<text x="774" y="722" fill="#989ca4">open</text>
<text x="837" y="722" fill="#989ca4">?</text>
<text x="855" y="722" fill="#989ca4">help</text>
<text x="27" y="740" fill="#e6e8ec">ready</text>
</svg>
