<svg xmlns="http://www.w3.org/2000/svg" width="1260" height="756" viewBox="0 0 1260 756">
<rect width="100%" height="100%" fill="#282b30"/>
<style>
text {
  font-family: "SFMono-Regular", "Cascadia Mono", "Liberation Mono", Menlo, Consolas, monospace;
  font-size: 15px;
  dominant-baseline: text-before-edge;
  white-space: pre;
}
</style>
<rect x="0" y="0" width="1260" height="18" fill="#282b30"/>
<rect x="0" y="18" width="126" height="18" fill="#282b30"/>
<rect x="126" y="18" width="171" height="18" fill="#406fdc"/>
<rect x="297" y="18" width="144" height="18" fill="#bcc1c9"/>
<rect x="441" y="18" width="819" height="18" fill="#282b30"/>
<rect x="0" y="36" width="1260" height="18" fill="#282b30"/>
<rect x="0" y="54" width="1260" height="18" fill="#282b30"/>
<rect x="0" y="72" width="1260" height="18" fill="#282b30"/>
<rect x="0" y="90" width="1260" height="18" fill="#282b30"/>
<rect x="0" y="108" width="1260" height="18" fill="#282b30"/>
<rect x="0" y="126" width="1260" height="18" fill="#282b30"/>
<rect x="0" y="144" width="963" height="18" fill="#282b30"/>
<rect x="963" y="144" width="288" height="18" fill="#ffc73d"/>
<rect x="1251" y="144" width="9" height="18" fill="#282b30"/>
<rect x="0" y="162" width="1260" height="18" fill="#282b30"/>
<rect x="0" y="180" width="1260" height="18" fill="#282b30"/>
<rect x="0" y="198" width="405" height="18" fill="#282b30"/>
<rect x="405" y="198" width="18" height="18" fill="#a3deae"/>
<rect x="423" y="198" width="837" height="18" fill="#282b30"/>
<rect x="0" y="216" width="378" height="18" fill="#282b30"/>
<rect x="378" y="216" width="36" height="18" fill="#a3deae"/>
<rect x="414" y="216" width="846" height="18" fill="#282b30"/>
<rect x="0" y="234" width="360" height="18" fill="#282b30"/>
<rect x="360" y="234" width="18" height="18" fill="#a3dec2"/>
<rect x="378" y="234" width="18" height="18" fill="#a3deae"/>
<rect x="396" y="234" width="36" height="18" fill="#7fd79a"/>
<rect x="432" y="234" width="828" height="18" fill="#282b30"/>
<rect x="0" y="252" width="351" height="18" fill="#282b30"/>
<rect x="351" y="252" width="27" height="18" fill="#a3dec2"/>
<rect x="378" y="252" width="36" height="18" fill="#7fd79a"/>
<rect x="414" y="252" width="9" height="18" fill="#282b30"/>
<rect x="423" y="252" width="18" height="18" fill="#59d19d"/>
<rect x="441" y="252" width="819" height="18" fill="#282b30"/>
<rect x="0" y="270" width="369" height="18" fill="#282b30"/>
<rect x="369" y="270" width="9" height="18" fill="#7fd7ce"/>
<rect x="378" y="270" width="18" height="18" fill="#7fd79a"/>
<rect x="396" y="270" width="18" height="18" fill="#282b30"/>
<rect x="414" y="270" width="27" height="18" fill="#59d19d"/>
<rect x="441" y="270" width="117" height="18" fill="#282b30"/>
<rect x="558" y="270" width="9" height="18" fill="#d7c07f"/>
<rect x="567" y="270" width="693" height="18" fill="#282b30"/>
<rect x="0" y="288" width="360" height="18" fill="#282b30"/>
<rect x="360" y="288" width="27" height="18" fill="#7fd7ce"/>
<rect x="387" y="288" width="9" height="18" fill="#282b30"/>
<rect x="396" y="288" width="27" height="18" fill="#59d19d"/>
<rect x="423" y="288" width="9" height="18" fill="#ffffff"/>
<rect x="432" y="288" width="27" height="18" fill="#ffc73d"/>
<rect x="459" y="288" width="81" height="18" fill="#282b30"/>
<rect x="540" y="288" width="9" height="18" fill="#d1a859"/>
<rect x="549" y="288" width="711" height="18" fill="#282b30"/>
<rect x="0" y="306" width="360" height="18" fill="#282b30"/>
<rect x="360" y="306" width="27" height="18" fill="#7fd7ce"/>
<rect x="387" y="306" width="27" height="18" fill="#59d19d"/>
<rect x="414" y="306" width="9" height="18" fill="#ffffff"/>
<rect x="423" y="306" width="18" height="18" fill="#ffc73d"/>
<rect x="441" y="306" width="9" height="18" fill="#302608"/>
<rect x="450" y="306" width="36" height="18" fill="#0f0f13"/>
<rect x="486" y="306" width="18" height="18" fill="#282b30"/>
<rect x="504" y="306" width="27" height="18" fill="#cf8b30"/>
<rect x="531" y="306" width="9" height="18" fill="#d19359"/>
<rect x="540" y="306" width="9" height="18" fill="#282b30"/>
<rect x="549" y="306" width="9" height="18" fill="#d18959"/>
<rect x="558" y="306" width="702" height="18" fill="#282b30"/>
<rect x="0" y="324" width="387" height="18" fill="#282b30"/>
<rect x="387" y="324" width="27" height="18" fill="#59a8d1"/>
<rect x="414" y="324" width="9" height="18" fill="#302608"/>
<rect x="423" y="324" width="18" height="18" fill="#ffc73d"/>
<rect x="441" y="324" width="9" height="18" fill="#ffffff"/>
<rect x="450" y="324" width="45" height="18" fill="#0f0f13"/>
<rect x="495" y="324" width="9" height="18" fill="#282b30"/>
<rect x="504" y="324" width="27" height="18" fill="#cf5230"/>
<rect x="531" y="324" width="9" height="18" fill="#d16559"/>
<rect x="540" y="324" width="720" height="18" fill="#282b30"/>
<rect x="0" y="342" width="387" height="18" fill="#282b30"/>
<rect x="387" y="342" width="36" height="18" fill="#59a8d1"/>
<rect x="423" y="342" width="18" height="18" fill="#ffc73d"/>
<rect x="441" y="342" width="9" height="18" fill="#302608"/>
<rect x="450" y="342" width="9" height="18" fill="#6b30cf"/>
<rect x="459" y="342" width="27" height="18" fill="#0f0f13"/>
<rect x="486" y="342" width="9" height="18" fill="#cf30b1"/>
<rect x="495" y="342" width="27" height="18" fill="#cf3054"/>
<rect x="522" y="342" width="9" height="18" fill="#282b30"/>
<rect x="531" y="342" width="9" height="18" fill="#d15966"/>
<rect x="540" y="342" width="18" height="18" fill="#d1595c"/>
<rect x="558" y="342" width="702" height="18" fill="#282b30"/>
<rect x="0" y="360" width="405" height="18" fill="#282b30"/>
<rect x="405" y="360" width="18" height="18" fill="#5984d1"/>
<rect x="423" y="360" width="9" height="18" fill="#596dd1"/>
<rect x="432" y="360" width="45" height="18" fill="#6b30cf"/>
<rect x="477" y="360" width="27" height="18" fill="#cf30b1"/>
<rect x="504" y="360" width="9" height="18" fill="#282b30"/>
<rect x="513" y="360" width="9" height="18" fill="#d15998"/>
<rect x="522" y="360" width="18" height="18" fill="#d15986"/>
<rect x="540" y="360" width="9" height="18" fill="#d15973"/>
<rect x="549" y="360" width="711" height="18" fill="#282b30"/>
<rect x="0" y="378" width="405" height="18" fill="#282b30"/>
<rect x="405" y="378" width="9" height="18" fill="#596dd1"/>
<rect x="414" y="378" width="27" height="18" fill="#6159d1"/>
<rect x="441" y="378" width="9" height="18" fill="#282b30"/>
<rect x="450" y="378" width="9" height="18" fill="#8759d1"/>
<rect x="459" y="378" width="27" height="18" fill="#282b30"/>
<rect x="486" y="378" width="27" height="18" fill="#d159cb"/>
<rect x="513" y="378" width="9" height="18" fill="#d159a8"/>
<rect x="522" y="378" width="18" height="18" fill="#d15998"/>
<rect x="540" y="378" width="720" height="18" fill="#282b30"/>
<rect x="0" y="396" width="405" height="18" fill="#282b30"/>
<rect x="405" y="396" width="18" height="18" fill="#7f7fd7"/>
<rect x="423" y="396" width="18" height="18" fill="#282b30"/>
<rect x="441" y="396" width="18" height="18" fill="#8759d1"/>
<rect x="459" y="396" width="18" height="18" fill="#a559d1"/>
<rect x="477" y="396" width="9" height="18" fill="#b759d1"/>
<rect x="486" y="396" width="27" height="18" fill="#d159cb"/>
<rect x="513" y="396" width="9" height="18" fill="#282b30"/>
<rect x="522" y="396" width="9" height="18" fill="#d77fbb"/>
<rect x="531" y="396" width="729" height="18" fill="#282b30"/>
<rect x="0" y="414" width="414" height="18" fill="#282b30"/>
<rect x="414" y="414" width="9" height="18" fill="#8e7fd7"/>
<rect x="423" y="414" width="36" height="18" fill="#282b30"/>
<rect x="459" y="414" width="9" height="18" fill="#b47fd7"/>
<rect x="468" y="414" width="792" height="18" fill="#282b30"/>
<rect x="0" y="432" width="459" height="18" fill="#282b30"/>
<rect x="459" y="432" width="9" height="18" fill="#b47fd7"/>
<rect x="468" y="432" width="792" height="18" fill="#282b30"/>
<rect x="0" y="450" width="1260" height="18" fill="#282b30"/>
<rect x="0" y="468" width="1260" height="18" fill="#282b30"/>
<rect x="0" y="486" width="1260" height="18" fill="#282b30"/>
<rect x="0" y="504" width="1260" height="18" fill="#282b30"/>
<rect x="0" y="522" width="1260" height="18" fill="#282b30"/>
<rect x="0" y="540" width="1260" height="18" fill="#282b30"/>
<rect x="0" y="558" width="1260" height="18" fill="#282b30"/>
<rect x="0" y="576" width="1260" height="18" fill="#282b30"/>
<rect x="0" y="594" width="1260" height="18" fill="#282b30"/>
<rect x="0" y="612" width="1260" height="18" fill="#282b30"/>
<rect x="0" y="630" width="1260" height="18" fill="#282b30"/>
<rect x="0" y="648" width="1260" height="18" fill="#282b30"/>
<rect x="0" y="666" width="1260" height="18" fill="#282b30"/>
<rect x="0" y="684" width="1260" height="18" fill="#282b30"/>
<rect x="0" y="702" width="1260" height="18" fill="#282b30"/>
<rect x="0" y="720" width="1260" height="18" fill="#282b30"/>
<rect x="0" y="738" width="1260" height="18" fill="#282b30"/>
<rect x="0" y="72" width="954" height="648" fill="#282b30"/>
<text x="27" y="74" fill="#62666e">map</text>
<path d="M 444.07 299.20 A 87.25 87.25 0 0 0 414.02 440.38 L 442.40 413.18 A 47.94 47.94 0 0 1 458.91 335.61 Z" fill="#ffc73d" stroke="#ffffff" stroke-width="5" stroke-linejoin="round"/>
<path d="M 428.10 260.02 A 129.56 129.56 0 0 0 347.44 381.15 L 386.75 380.80 A 90.25 90.25 0 0 1 442.94 296.42 Z" fill="#59d19d" stroke="#282b30" stroke-width="1.4" stroke-linejoin="round"/>
<path d="M 412.13 220.83 A 171.88 171.88 0 0 0 326.83 296.40 L 361.18 315.52 A 132.56 132.56 0 0 1 426.97 257.24 Z" fill="#7fd79a" stroke="#282b30" stroke-width="1.4" stroke-linejoin="round"/>
<path d="M 396.16 181.65 A 214.19 214.19 0 0 0 321.23 232.99 L 349.82 259.97 A 174.88 174.88 0 0 1 411.00 218.06 Z" fill="#a3deae" stroke="#282b30" stroke-width="1.4" stroke-linejoin="round"/>
<path d="M 318.32 236.13 A 214.19 214.19 0 0 0 289.86 275.81 L 324.21 294.94 A 174.88 174.88 0 0 1 347.45 262.54 Z" fill="#a3dec2" stroke="#282b30" stroke-width="1.4" stroke-linejoin="round"/>
<path d="M 325.19 299.42 A 171.88 171.88 0 0 0 305.13 381.53 L 344.44 381.18 A 132.56 132.56 0 0 1 359.91 317.85 Z" fill="#7fd7ce" stroke="#282b30" stroke-width="1.4" stroke-linejoin="round"/>
<path d="M 347.49 383.74 A 129.56 129.56 0 0 0 357.00 428.85 L 393.41 414.03 A 90.25 90.25 0 0 1 386.79 382.61 Z" fill="#59a8d1" stroke="#282b30" stroke-width="1.4" stroke-linejoin="round"/>
<path d="M 358.00 431.24 A 129.56 129.56 0 0 0 371.94 455.83 L 403.82 432.82 A 90.25 90.25 0 0 1 394.11 415.70 Z" fill="#5984d1" stroke="#282b30" stroke-width="1.4" stroke-linejoin="round"/>
<path d="M 373.19 457.53 A 129.56 129.56 0 0 0 383.81 470.02 L 412.09 442.70 A 90.25 90.25 0 0 1 404.69 434.00 Z" fill="#596dd1" stroke="#282b30" stroke-width="1.4" stroke-linejoin="round"/>
<path d="M 415.24 441.63 A 87.25 87.25 0 0 0 489.85 466.30 L 484.06 427.42 A 47.94 47.94 0 0 1 443.07 413.86 Z" fill="#6b30cf" stroke="#282b30" stroke-width="1.4" stroke-linejoin="round"/>
<path d="M 385.29 471.52 A 129.56 129.56 0 0 0 419.65 496.18 L 437.05 460.93 A 90.25 90.25 0 0 1 413.12 443.75 Z" fill="#6159d1" stroke="#282b30" stroke-width="1.4" stroke-linejoin="round"/>
<path d="M 355.21 501.28 A 171.88 171.88 0 0 0 379.02 521.21 L 401.43 488.91 A 132.56 132.56 0 0 1 383.07 473.54 Z" fill="#7f7fd7" stroke="#282b30" stroke-width="1.4" stroke-linejoin="round"/>
<path d="M 381.24 522.73 A 171.88 171.88 0 0 0 401.43 534.37 L 418.71 499.06 A 132.56 132.56 0 0 1 403.14 490.08 Z" fill="#8e7fd7" stroke="#282b30" stroke-width="1.4" stroke-linejoin="round"/>
<path d="M 421.99 497.30 A 129.56 129.56 0 0 0 455.05 507.69 L 461.71 468.95 A 90.25 90.25 0 0 1 438.68 461.71 Z" fill="#8759d1" stroke="#282b30" stroke-width="1.4" stroke-linejoin="round"/>
<path d="M 457.53 508.09 A 129.56 129.56 0 0 0 482.06 509.47 L 480.53 470.18 A 90.25 90.25 0 0 1 463.43 469.23 Z" fill="#a559d1" stroke="#282b30" stroke-width="1.4" stroke-linejoin="round"/>
<path d="M 450.79 549.87 A 171.88 171.88 0 0 0 475.56 551.87 L 475.89 512.56 A 132.56 132.56 0 0 1 456.78 511.01 Z" fill="#b47fd7" stroke="#282b30" stroke-width="1.4" stroke-linejoin="round"/>
<path d="M 477.17 551.88 A 171.88 171.88 0 0 0 484.94 551.69 L 483.13 512.42 A 132.56 132.56 0 0 1 477.13 512.56 Z" fill="#bd7fd7" stroke="#282b30" stroke-width="1.4" stroke-linejoin="round"/>
<path d="M 483.91 509.38 A 129.56 129.56 0 0 0 496.73 508.05 L 490.75 469.20 A 90.25 90.25 0 0 1 481.82 470.12 Z" fill="#b759d1" stroke="#282b30" stroke-width="1.4" stroke-linejoin="round"/>
<path d="M 491.57 466.03 A 87.25 87.25 0 0 0 543.32 436.69 L 513.44 411.15 A 47.94 47.94 0 0 1 485.01 427.27 Z" fill="#cf30b1" stroke="#282b30" stroke-width="1.4" stroke-linejoin="round"/>
<path d="M 498.64 507.74 A 129.56 129.56 0 0 0 548.57 488.01 L 526.85 455.23 A 90.25 90.25 0 0 1 492.07 468.98 Z" fill="#d159cb" stroke="#282b30" stroke-width="1.4" stroke-linejoin="round"/>
<path d="M 550.36 486.80 A 129.56 129.56 0 0 0 564.13 475.89 L 537.69 446.80 A 90.25 90.25 0 0 1 528.10 454.39 Z" fill="#d159a8" stroke="#282b30" stroke-width="1.4" stroke-linejoin="round"/>
<path d="M 574.00 521.89 A 171.88 171.88 0 0 0 586.42 512.55 L 561.39 482.23 A 132.56 132.56 0 0 1 551.81 489.44 Z" fill="#d77fbb" stroke="#282b30" stroke-width="1.4" stroke-linejoin="round"/>
<path d="M 587.31 511.81 A 171.88 171.88 0 0 0 593.15 506.69 L 566.59 477.71 A 132.56 132.56 0 0 1 562.08 481.66 Z" fill="#d77fb5" stroke="#282b30" stroke-width="1.4" stroke-linejoin="round"/>
<path d="M 565.33 474.79 A 129.56 129.56 0 0 0 575.84 463.77 L 545.85 438.36 A 90.25 90.25 0 0 1 538.53 446.03 Z" fill="#d15998" stroke="#282b30" stroke-width="1.4" stroke-linejoin="round"/>
<path d="M 544.44 435.36 A 87.25 87.25 0 0 0 561.95 399.90 L 523.68 390.94 A 47.94 47.94 0 0 1 514.06 410.42 Z" fill="#cf3054" stroke="#282b30" stroke-width="1.4" stroke-linejoin="round"/>
<path d="M 576.99 462.40 A 129.56 129.56 0 0 0 589.02 445.10 L 555.03 425.35 A 90.25 90.25 0 0 1 546.65 437.40 Z" fill="#d15986" stroke="#282b30" stroke-width="1.4" stroke-linejoin="round"/>
<path d="M 589.91 443.54 A 129.56 129.56 0 0 0 596.59 429.85 L 560.30 414.73 A 90.25 90.25 0 0 1 555.65 424.26 Z" fill="#d15973" stroke="#282b30" stroke-width="1.4" stroke-linejoin="round"/>
<path d="M 597.07 428.67 A 129.56 129.56 0 0 0 600.63 418.75 L 563.12 406.99 A 90.25 90.25 0 0 1 560.64 413.90 Z" fill="#d15966" stroke="#282b30" stroke-width="1.4" stroke-linejoin="round"/>
<path d="M 600.93 417.81 A 129.56 129.56 0 0 0 603.33 408.75 L 565.00 400.02 A 90.25 90.25 0 0 1 563.32 406.33 Z" fill="#d1595c" stroke="#282b30" stroke-width="1.4" stroke-linejoin="round"/>
<path d="M 562.33 398.20 A 87.25 87.25 0 0 0 562.73 363.75 L 524.10 371.07 A 47.94 47.94 0 0 1 523.89 390.00 Z" fill="#cf5230" stroke="#282b30" stroke-width="1.4" stroke-linejoin="round"/>
<path d="M 603.67 407.22 A 129.56 129.56 0 0 0 606.46 385.15 L 567.18 383.59 A 90.25 90.25 0 0 1 565.24 398.96 Z" fill="#d16559" stroke="#282b30" stroke-width="1.4" stroke-linejoin="round"/>
<path d="M 606.52 383.42 A 129.56 129.56 0 0 0 606.22 370.53 L 567.01 373.41 A 90.25 90.25 0 0 1 567.22 382.38 Z" fill="#d17759" stroke="#282b30" stroke-width="1.4" stroke-linejoin="round"/>
<path d="M 606.13 369.44 A 129.56 129.56 0 0 0 605.03 360.13 L 566.18 366.16 A 90.25 90.25 0 0 1 566.95 372.64 Z" fill="#d18259" stroke="#282b30" stroke-width="1.4" stroke-linejoin="round"/>
<path d="M 604.92 359.44 A 129.56 129.56 0 0 0 604.09 354.83 L 565.53 362.46 A 90.25 90.25 0 0 1 566.11 365.68 Z" fill="#d18959" stroke="#282b30" stroke-width="1.4" stroke-linejoin="round"/>
<path d="M 562.38 362.04 A 87.25 87.25 0 0 0 553.76 338.52 L 519.17 357.21 A 47.94 47.94 0 0 1 523.91 370.13 Z" fill="#cf8b30" stroke="#282b30" stroke-width="1.4" stroke-linejoin="round"/>
<path d="M 603.91 353.92 A 129.56 129.56 0 0 0 600.34 340.32 L 562.92 352.36 A 90.25 90.25 0 0 1 565.40 361.83 Z" fill="#d19359" stroke="#282b30" stroke-width="1.4" stroke-linejoin="round"/>
<path d="M 599.96 339.16 A 129.56 129.56 0 0 0 596.23 329.30 L 560.06 344.68 A 90.25 90.25 0 0 1 562.65 351.55 Z" fill="#d19f59" stroke="#282b30" stroke-width="1.4" stroke-linejoin="round"/>
<path d="M 595.87 328.45 A 129.56 129.56 0 0 0 592.37 321.03 L 557.36 338.92 A 90.25 90.25 0 0 1 559.80 344.09 Z" fill="#d1a859" stroke="#282b30" stroke-width="1.4" stroke-linejoin="round"/>
<path d="M 592.10 320.52 A 129.56 129.56 0 0 0 590.45 317.41 L 556.02 336.40 A 90.25 90.25 0 0 1 557.18 338.56 Z" fill="#d1ae59" stroke="#282b30" stroke-width="1.4" stroke-linejoin="round"/>
<path d="M 553.00 337.14 A 87.25 87.25 0 0 0 545.04 325.38 L 514.39 349.99 A 47.94 47.94 0 0 1 518.76 356.45 Z" fill="#cfb130" stroke="#282b30" stroke-width="1.4" stroke-linejoin="round"/>
<path d="M 590.11 316.80 A 129.56 129.56 0 0 0 584.55 307.76 L 551.92 329.68 A 90.25 90.25 0 0 1 555.79 335.98 Z" fill="#d1b559" stroke="#282b30" stroke-width="1.4" stroke-linejoin="round"/>
<path d="M 627.23 296.50 A 171.88 171.88 0 0 0 624.09 291.09 L 590.45 311.42 A 132.56 132.56 0 0 1 592.87 315.60 Z" fill="#d7c07f" stroke="#282b30" stroke-width="1.4" stroke-linejoin="round"/>
<path d="M 623.81 290.62 A 171.88 171.88 0 0 0 621.31 286.65 L 588.31 308.00 A 132.56 132.56 0 0 1 590.23 311.07 Z" fill="#d7c37f" stroke="#282b30" stroke-width="1.4" stroke-linejoin="round"/>
<path d="M 621.10 286.32 A 171.88 171.88 0 0 0 619.37 283.71 L 586.81 305.74 A 132.56 132.56 0 0 1 588.14 307.75 Z" fill="#d7c57f" stroke="#282b30" stroke-width="1.4" stroke-linejoin="round"/>
<path d="M 584.06 307.03 A 129.56 129.56 0 0 0 579.92 301.29 L 548.69 325.17 A 90.25 90.25 0 0 1 551.58 329.17 Z" fill="#d1be59" stroke="#282b30" stroke-width="1.4" stroke-linejoin="round"/>
<path d="M 579.63 300.92 A 129.56 129.56 0 0 0 578.18 299.07 L 547.48 323.62 A 90.25 90.25 0 0 1 548.49 324.92 Z" fill="#d1c359" stroke="#282b30" stroke-width="1.4" stroke-linejoin="round"/>
<path d="M 578.07 298.93 A 129.56 129.56 0 0 0 577.42 298.13 L 546.95 322.97 A 90.25 90.25 0 0 1 547.40 323.53 Z" fill="#d1c559" stroke="#282b30" stroke-width="1.4" stroke-linejoin="round"/>
<path d="M 544.43 324.63 A 87.25 87.25 0 0 0 540.79 320.47 L 512.05 347.29 A 47.94 47.94 0 0 1 514.05 349.58 Z" fill="#cfc430" stroke="#282b30" stroke-width="1.4" stroke-linejoin="round"/>
<path d="M 577.24 297.90 A 129.56 129.56 0 0 0 574.12 294.24 L 544.65 320.26 A 90.25 90.25 0 0 1 546.82 322.81 Z" fill="#d1c859" stroke="#282b30" stroke-width="1.4" stroke-linejoin="round"/>
<path d="M 573.89 293.98 A 129.56 129.56 0 0 0 572.28 292.20 L 543.37 318.84 A 90.25 90.25 0 0 1 544.49 320.08 Z" fill="#d1cb59" stroke="#282b30" stroke-width="1.4" stroke-linejoin="round"/>
<path d="M 572.16 292.07 A 129.56 129.56 0 0 0 571.48 291.34 L 542.81 318.24 A 90.25 90.25 0 0 1 543.29 318.75 Z" fill="#d1cd59" stroke="#282b30" stroke-width="1.4" stroke-linejoin="round"/>
<circle cx="477.00" cy="380.00" r="45.44" fill="#0f0f13"/>
<text x="477.00" y="367.00" fill="#ffffff" font-weight="700" text-anchor="middle">512</text>
<text x="477.00" y="385.00" fill="#989ca4" text-anchor="middle">GB</text>
<text x="36" y="686" fill="#62666e">◎</text>
<text x="72" y="686" fill="#62666e">drag and drop files here to collect them</text>
<text x="18" y="20" fill="#ffffff" font-weight="700">Dustbunny</text>
<text x="135" y="20" fill="#ffffff" font-weight="700">Disks</text>
<text x="189" y="20" fill="#ffffff" font-weight="700">and</text>
<text x="225" y="20" fill="#ffffff" font-weight="700">Folders</text>
<text x="306" y="20" fill="#24272c">DustBunny</text>
<text x="396" y="20" fill="#24272c">Demo</text>
<text x="18" y="38" fill="#989ca4">DustBunny</text>
<text x="108" y="38" fill="#989ca4">Demo</text>
<text x="171" y="38" fill="#989ca4">/Volumes/DustBunny</text>
<text x="342" y="38" fill="#989ca4">Demo</text>
<text x="954" y="74" fill="#3e4148">│</text>
<text x="954" y="92" fill="#3e4148">│</text>
<text x="954" y="110" fill="#3e4148">│</text>
<text x="981" y="110" fill="#ffffff">DustBunny</text>
<text x="1071" y="110" fill="#ffffff">Demo</text>
<text x="1188" y="110" fill="#ffffff">512</text>
<text x="1224" y="110" fill="#ffffff">GB</text>
<text x="954" y="128" fill="#3e4148">│</text>
<text x="954" y="146" fill="#3e4148">│</text>
<text x="981" y="146" fill="#302608" font-weight="700">▶</text>
<text x="999" y="146" fill="#302608" font-weight="700">Users</text>
<text x="1188" y="146" fill="#302608" font-weight="700">198</text>
<text x="1224" y="146" fill="#302608" font-weight="700">GB</text>
<text x="954" y="164" fill="#3e4148">│</text>
<text x="981" y="164" fill="#6b30cf">●</text>
<text x="999" y="164" fill="#e6e8ec">Projects</text>
<text x="1197" y="164" fill="#e6e8ec">96</text>
<text x="1224" y="164" fill="#e6e8ec">GB</text>
<text x="954" y="182" fill="#3e4148">│</text>
<text x="981" y="182" fill="#cf30b1">●</text>
<text x="999" y="182" fill="#e6e8ec">Containers</text>
<text x="1197" y="182" fill="#e6e8ec">72</text>
<text x="1224" y="182" fill="#e6e8ec">GB</text>
<text x="954" y="200" fill="#3e4148">│</text>
<text x="981" y="200" fill="#cf3054">●</text>
<text x="999" y="200" fill="#e6e8ec">Applications</text>
<text x="1197" y="200" fill="#e6e8ec">48</text>
<text x="1224" y="200" fill="#e6e8ec">GB</text>
<text x="954" y="218" fill="#3e4148">│</text>
<text x="981" y="218" fill="#cf5230">●</text>
<text x="999" y="218" fill="#e6e8ec">System</text>
<text x="1197" y="218" fill="#e6e8ec">42</text>
<text x="1224" y="218" fill="#e6e8ec">GB</text>
<text x="954" y="236" fill="#3e4148">│</text>
<text x="981" y="236" fill="#cf8b30">●</text>
<text x="999" y="236" fill="#e6e8ec">Media</text>
<text x="1053" y="236" fill="#e6e8ec">Cache</text>
<text x="1197" y="236" fill="#e6e8ec">31</text>
<text x="1224" y="236" fill="#e6e8ec">GB</text>
<text x="954" y="254" fill="#3e4148">│</text>
<text x="981" y="254" fill="#cfb130">●</text>
<text x="999" y="254" fill="#e6e8ec">Library</text>
<text x="1197" y="254" fill="#e6e8ec">18</text>
<text x="1224" y="254" fill="#e6e8ec">GB</text>
<text x="954" y="272" fill="#3e4148">│</text>
<text x="981" y="272" fill="#cfc430">●</text>
<text x="999" y="272" fill="#e6e8ec">hidden</text>
<text x="1062" y="272" fill="#e6e8ec">space</text>
<text x="1188" y="272" fill="#e6e8ec">7.0</text>
<text x="1224" y="272" fill="#e6e8ec">GB</text>
<text x="954" y="290" fill="#3e4148">│</text>
<text x="954" y="308" fill="#3e4148">│</text>
<text x="981" y="308" fill="#3e4148">────────────────────────────</text>
<text x="954" y="326" fill="#3e4148">│</text>
<text x="954" y="344" fill="#3e4148">│</text>
<text x="981" y="344" fill="#62666e">selected</text>
<text x="954" y="362" fill="#3e4148">│</text>
<text x="981" y="362" fill="#ffffff" font-weight="700">Users</text>
<text x="954" y="380" fill="#3e4148">│</text>
<text x="981" y="380" fill="#989ca4">[D]</text>
<text x="1026" y="380" fill="#e6e8ec">198</text>
<text x="1062" y="380" fill="#e6e8ec">GB</text>
<text x="954" y="398" fill="#3e4148">│</text>
<text x="981" y="398" fill="#989ca4">8</text>
<text x="999" y="398" fill="#989ca4">items</text>
<text x="954" y="416" fill="#3e4148">│</text>
<text x="981" y="416" fill="#62666e">/Volumes/DustBunny</text>
<text x="1152" y="416" fill="#62666e">Demo/Use.</text>
<text x="954" y="434" fill="#3e4148">│</text>
<text x="954" y="452" fill="#3e4148">│</text>
<text x="954" y="470" fill="#3e4148">│</text>
<text x="954" y="488" fill="#3e4148">│</text>
<text x="954" y="506" fill="#3e4148">│</text>
<text x="954" y="524" fill="#3e4148">│</text>
<text x="954" y="542" fill="#3e4148">│</text>
<text x="954" y="560" fill="#3e4148">│</text>
<text x="954" y="578" fill="#3e4148">│</text>
<text x="954" y="596" fill="#3e4148">│</text>
<text x="954" y="614" fill="#3e4148">│</text>
<text x="954" y="632" fill="#3e4148">│</text>
<text x="954" y="650" fill="#3e4148">│</text>
<text x="954" y="668" fill="#3e4148">│</text>
<text x="954" y="686" fill="#3e4148">│</text>
<text x="981" y="686" fill="#62666e">list</text>
<text x="1026" y="686" fill="#62666e">focus</text>
<text x="954" y="704" fill="#3e4148">│</text>
<text x="27" y="722" fill="#989ca4">q</text>
<text x="45" y="722" fill="#989ca4">quit</text>
<text x="108" y="722" fill="#989ca4">enter</text>
<text x="162" y="722" fill="#989ca4">drill</text>
<text x="234" y="722" fill="#989ca4">backspace</text>
<text x="324" y="722" fill="#989ca4">parent</text>
<text x="405" y="722" fill="#989ca4">arrows</text>
<text x="468" y="722" fill="#989ca4">select</text>
<text x="549" y="722" fill="#989ca4">tab</text>
<text x="585" y="722" fill="#989ca4">focus</text>
<text x="657" y="722" fill="#989ca4">r</text>
<text x="675" y="722" fill="#989ca4">rescan</text>
<text x="756" y="722" fill="#989ca4">o</text>
<text x="774" y="722" fill="#989ca4">open</text>
<text x="837" y="722" fill="#989ca4">?</text>
<text x="855" y="722" fill="#989ca4">help</text>
<text x="27" y="740" fill="#e6e8ec">ready</text>
</svg>
