<svg xmlns="http://www.w3.org/2000/svg" width="1008" height="612" viewBox="0 0 1008 612">
<rect width="100%" height="100%" fill="#0f1117"/>
<style>
text {
  font-family: "SFMono-Regular", "Cascadia Mono", "Liberation Mono", Menlo, Consolas, monospace;
  font-size: 15px;
  dominant-baseline: text-before-edge;
  white-space: pre;
}
</style>
<rect x="0" y="0" width="1008" height="18" fill="#262626"/>
<rect x="0" y="18" width="135" height="18" fill="#262626"/>
<rect x="135" y="18" width="171" height="18" fill="#005faf"/>
<rect x="306" y="18" width="144" height="18" fill="#444444"/>
<rect x="450" y="18" width="558" height="18" fill="#262626"/>
<rect x="0" y="36" width="1008" height="18" fill="#262626"/>
<rect x="0" y="54" width="1008" height="18" fill="#262626"/>
<rect x="0" y="72" width="1008" height="18" fill="#262626"/>
<rect x="0" y="90" width="1008" height="18" fill="#262626"/>
<rect x="0" y="108" width="1008" height="18" fill="#262626"/>
<rect x="0" y="126" width="1008" height="18" fill="#262626"/>
<rect x="0" y="144" width="720" height="18" fill="#262626"/>
<rect x="720" y="144" width="9" height="18" fill="#444444"/>
<rect x="729" y="144" width="9" height="18" fill="#262626"/>
<rect x="738" y="144" width="252" height="18" fill="#444444"/>
<rect x="990" y="144" width="18" height="18" fill="#262626"/>
<rect x="0" y="162" width="1008" height="18" fill="#262626"/>
<rect x="0" y="180" width="1008" height="18" fill="#262626"/>
<rect x="0" y="198" width="1008" height="18" fill="#262626"/>
<rect x="0" y="216" width="1008" height="18" fill="#262626"/>
<rect x="0" y="234" width="279" height="18" fill="#262626"/>
<rect x="279" y="234" width="18" height="18" fill="#87d75f"/>
<rect x="297" y="234" width="711" height="18" fill="#262626"/>
<rect x="0" y="252" width="261" height="18" fill="#262626"/>
<rect x="261" y="252" width="45" height="18" fill="#87d75f"/>
<rect x="306" y="252" width="702" height="18" fill="#262626"/>
<rect x="0" y="270" width="243" height="18" fill="#262626"/>
<rect x="243" y="270" width="36" height="18" fill="#87d75f"/>
<rect x="279" y="270" width="36" height="18" fill="#ffd700"/>
<rect x="315" y="270" width="99" height="18" fill="#262626"/>
<rect x="414" y="270" width="9" height="18" fill="#ff00af"/>
<rect x="423" y="270" width="585" height="18" fill="#262626"/>
<rect x="0" y="288" width="234" height="18" fill="#262626"/>
<rect x="234" y="288" width="63" height="18" fill="#87d75f"/>
<rect x="297" y="288" width="18" height="18" fill="#ffd700"/>
<rect x="315" y="288" width="9" height="18" fill="#3a3a3a"/>
<rect x="324" y="288" width="54" height="18" fill="#262626"/>
<rect x="378" y="288" width="18" height="18" fill="#ff5faf"/>
<rect x="396" y="288" width="9" height="18" fill="#262626"/>
<rect x="405" y="288" width="9" height="18" fill="#af00ff"/>
<rect x="414" y="288" width="9" height="18" fill="#262626"/>
<rect x="423" y="288" width="9" height="18" fill="#af00ff"/>
<rect x="432" y="288" width="576" height="18" fill="#262626"/>
<rect x="0" y="306" width="225" height="18" fill="#262626"/>
<rect x="225" y="306" width="36" height="18" fill="#87d75f"/>
<rect x="261" y="306" width="9" height="18" fill="#262626"/>
<rect x="270" y="306" width="27" height="18" fill="#ffd700"/>
<rect x="297" y="306" width="81" height="18" fill="#3a3a3a"/>
<rect x="378" y="306" width="117" height="18" fill="#af5fff"/>
<rect x="495" y="306" width="513" height="18" fill="#262626"/>
<rect x="0" y="324" width="225" height="18" fill="#262626"/>
<rect x="225" y="324" width="36" height="18" fill="#87d75f"/>
<rect x="261" y="324" width="18" height="18" fill="#ffd700"/>
<rect x="279" y="324" width="27" height="18" fill="#87ff5f"/>
<rect x="306" y="324" width="72" height="18" fill="#3a3a3a"/>
<rect x="378" y="324" width="36" height="18" fill="#875fff"/>
<rect x="414" y="324" width="18" height="18" fill="#8700ff"/>
<rect x="432" y="324" width="576" height="18" fill="#262626"/>
<rect x="0" y="342" width="225" height="18" fill="#262626"/>
<rect x="225" y="342" width="36" height="18" fill="#87d75f"/>
<rect x="261" y="342" width="45" height="18" fill="#ffd700"/>
<rect x="306" y="342" width="63" height="18" fill="#3a3a3a"/>
<rect x="369" y="342" width="18" height="18" fill="#5fafff"/>
<rect x="387" y="342" width="9" height="18" fill="#262626"/>
<rect x="396" y="342" width="36" height="18" fill="#875fff"/>
<rect x="432" y="342" width="81" height="18" fill="#8700ff"/>
<rect x="513" y="342" width="495" height="18" fill="#262626"/>
<rect x="0" y="360" width="234" height="18" fill="#262626"/>
<rect x="234" y="360" width="63" height="18" fill="#87d75f"/>
<rect x="297" y="360" width="9" height="18" fill="#87d7d7"/>
<rect x="306" y="360" width="9" height="18" fill="#262626"/>
<rect x="315" y="360" width="9" height="18" fill="#87d7d7"/>
<rect x="324" y="360" width="9" height="18" fill="#262626"/>
<rect x="333" y="360" width="9" height="18" fill="#3a3a3a"/>
<rect x="342" y="360" width="27" height="18" fill="#87afff"/>
<rect x="369" y="360" width="9" height="18" fill="#262626"/>
<rect x="378" y="360" width="9" height="18" fill="#87afff"/>
<rect x="387" y="360" width="108" height="18" fill="#5fafff"/>
<rect x="495" y="360" width="513" height="18" fill="#262626"/>
<rect x="0" y="378" width="243" height="18" fill="#262626"/>
<rect x="243" y="378" width="90" height="18" fill="#87d75f"/>
<rect x="333" y="378" width="9" height="18" fill="#87d7d7"/>
<rect x="342" y="378" width="117" height="18" fill="#87afff"/>
<rect x="459" y="378" width="549" height="18" fill="#262626"/>
<rect x="0" y="396" width="252" height="18" fill="#262626"/>
<rect x="252" y="396" width="9" height="18" fill="#87d75f"/>
<rect x="261" y="396" width="36" height="18" fill="#87afd7"/>
<rect x="297" y="396" width="9" height="18" fill="#262626"/>
<rect x="306" y="396" width="9" height="18" fill="#87afd7"/>
<rect x="315" y="396" width="72" height="18" fill="#87d7d7"/>
<rect x="387" y="396" width="27" height="18" fill="#8787ff"/>
<rect x="414" y="396" width="594" height="18" fill="#262626"/>
<rect x="0" y="414" width="279" height="18" fill="#262626"/>
<rect x="279" y="414" width="72" height="18" fill="#87afd7"/>
<rect x="351" y="414" width="108" height="18" fill="#8787ff"/>
<rect x="459" y="414" width="549" height="18" fill="#262626"/>
<rect x="0" y="432" width="306" height="18" fill="#262626"/>
<rect x="306" y="432" width="135" height="18" fill="#87afd7"/>
<rect x="441" y="432" width="567" height="18" fill="#262626"/>
<rect x="0" y="450" width="1008" height="18" fill="#262626"/>
<rect x="0" y="468" width="1008" height="18" fill="#262626"/>
<rect x="0" y="486" width="1008" height="18" fill="#262626"/>
<rect x="0" y="504" width="1008" height="18" fill="#262626"/>
<rect x="0" y="522" width="1008" height="18" fill="#262626"/>
<rect x="0" y="540" width="1008" height="18" fill="#262626"/>
<rect x="0" y="558" width="1008" height="18" fill="#262626"/>
<rect x="0" y="576" width="1008" height="18" fill="#3a3a3a"/>
<rect x="0" y="594" width="1008" height="18" fill="#3a3a3a"/>
<text x="27" y="20" fill="#eeeeee" font-weight="700">Dustbunny</text>
<text x="144" y="20" fill="#eeeeee" font-weight="700">Disks</text>
<text x="198" y="20" fill="#eeeeee" font-weight="700">and</text>
<text x="234" y="20" fill="#eeeeee" font-weight="700">Folders</text>
<text x="315" y="20" fill="#d0d0d0">DustBunny</text>
<text x="405" y="20" fill="#d0d0d0">Demo</text>
<text x="27" y="38" fill="#808080">DustBunny</text>
<text x="117" y="38" fill="#808080">Demo</text>
<text x="180" y="38" fill="#808080">/Volumes/DustBunny</text>
<text x="351" y="38" fill="#808080">Demo</text>
<text x="27" y="74" fill="#808080">map</text>
<text x="702" y="74" fill="#444444">│</text>
<text x="702" y="92" fill="#444444">│</text>
<text x="702" y="110" fill="#444444">│</text>
<text x="729" y="110" fill="#eeeeee">DustBunny</text>
<text x="819" y="110" fill="#eeeeee">Demo</text>
<text x="936" y="110" fill="#eeeeee">512</text>
<text x="972" y="110" fill="#eeeeee">GB</text>
<text x="702" y="128" fill="#444444">│</text>
<text x="702" y="146" fill="#444444">│</text>
<text x="729" y="146" fill="#87ff5f">•</text>
<text x="747" y="146" fill="#eeeeee" font-weight="700">Users</text>
<text x="936" y="146" fill="#eeeeee" font-weight="700">198</text>
<text x="972" y="146" fill="#eeeeee" font-weight="700">GB</text>
<text x="702" y="164" fill="#444444">│</text>
<text x="729" y="164" fill="#87d7d7">•</text>
<text x="747" y="164" fill="#d0d0d0">Projects</text>
<text x="945" y="164" fill="#d0d0d0">96</text>
<text x="972" y="164" fill="#d0d0d0">GB</text>
<text x="702" y="182" fill="#444444">│</text>
<text x="729" y="182" fill="#87afff">•</text>
<text x="747" y="182" fill="#d0d0d0">Containers</text>
<text x="945" y="182" fill="#d0d0d0">72</text>
<text x="972" y="182" fill="#d0d0d0">GB</text>
<text x="702" y="200" fill="#444444">│</text>
<text x="729" y="200" fill="#5fafff">•</text>
<text x="747" y="200" fill="#d0d0d0">Applications</text>
<text x="945" y="200" fill="#d0d0d0">48</text>
<text x="972" y="200" fill="#d0d0d0">GB</text>
<text x="702" y="218" fill="#444444">│</text>
<text x="729" y="218" fill="#875fff">•</text>
<text x="747" y="218" fill="#d0d0d0">System</text>
<text x="945" y="218" fill="#d0d0d0">42</text>
<text x="972" y="218" fill="#d0d0d0">GB</text>
<text x="270" y="236" fill="#87d75f">▄</text>
<text x="297" y="236" fill="#87d75f">▄</text>
<text x="702" y="236" fill="#444444">│</text>
<text x="729" y="236" fill="#af5fff">•</text>
<text x="747" y="236" fill="#d0d0d0">Media</text>
<text x="801" y="236" fill="#d0d0d0">Cache</text>
<text x="945" y="236" fill="#d0d0d0">31</text>
<text x="972" y="236" fill="#d0d0d0">GB</text>
<text x="252" y="254" fill="#87d75f">▄</text>
<text x="414" y="254" fill="#d70087">▄</text>
<text x="702" y="254" fill="#444444">│</text>
<text x="729" y="254" fill="#ff5faf">•</text>
<text x="747" y="254" fill="#d0d0d0">Library</text>
<text x="945" y="254" fill="#d0d0d0">18</text>
<text x="972" y="254" fill="#d0d0d0">GB</text>
<text x="234" y="272" fill="#87d75f">▄</text>
<text x="279" y="272" fill="#87d75f">▀</text>
<text x="387" y="272" fill="#d75f87">▄</text>
<text x="405" y="272" fill="#ff00af">▄</text>
<text x="423" y="272" fill="#ff00af">▀</text>
<text x="702" y="272" fill="#444444">│</text>
<text x="729" y="272" fill="#d75f87">•</text>
<text x="747" y="272" fill="#d0d0d0">hidden</text>
<text x="810" y="272" fill="#d0d0d0">space</text>
<text x="936" y="272" fill="#d0d0d0">7.0</text>
<text x="972" y="272" fill="#d0d0d0">GB</text>
<text x="261" y="290" fill="#262626" font-weight="700">dunc</text>
<text x="315" y="290" fill="#ffd700">▀</text>
<text x="324" y="290" fill="#3a3a3a">▄▄▄▄</text>
<text x="369" y="290" fill="#d75f87">▄</text>
<text x="378" y="290" fill="#d75f87">▀</text>
<text x="396" y="290" fill="#af5fff">▄</text>
<text x="405" y="290" fill="#ff00af">▀</text>
<text x="414" y="290" fill="#af00ff">▄</text>
<text x="432" y="290" fill="#af00ff">▀</text>
<text x="702" y="290" fill="#444444">│</text>
<text x="261" y="308" fill="#ffd700">▄</text>
<text x="297" y="308" fill="#ffd700">▀</text>
<text x="369" y="308" fill="#ff5faf">▀</text>
<text x="396" y="308" fill="#262626" font-weight="700">Media</text>
<text x="450" y="308" fill="#262626" font-weight="700">Cache</text>
<text x="702" y="308" fill="#444444">│</text>
<text x="729" y="308" fill="#444444">────────────────────────────</text>
<text x="279" y="326" fill="#262626" font-weight="700">Use</text>
<text x="306" y="326" fill="#eeeeee" font-weight="700">512</text>
<text x="342" y="326" fill="#eeeeee" font-weight="700">GB</text>
<text x="432" y="326" fill="#8700ff">▀▀</text>
<text x="702" y="326" fill="#444444">│</text>
<text x="297" y="344" fill="#3a3a3a">▀</text>
<text x="315" y="344" fill="#808080">used</text>
<text x="369" y="344" fill="#3a3a3a">▀</text>
<text x="387" y="344" fill="#5fafff">▄</text>
<text x="396" y="344" fill="#262626" font-weight="700">Syst</text>
<text x="432" y="344" fill="#262626" font-weight="700">Developer</text>
<text x="702" y="344" fill="#444444">│</text>
<text x="729" y="344" fill="#585858">selected</text>
<text x="243" y="362" fill="#262626" font-weight="700">Shared</text>
<text x="297" y="362" fill="#ffd700">▀</text>
<text x="306" y="362" fill="#87d7d7">▄</text>
<text x="315" y="362" fill="#3a3a3a">▀</text>
<text x="324" y="362" fill="#3a3a3a">▀</text>
<text x="342" y="362" fill="#3a3a3a">▀▀</text>
<text x="369" y="362" fill="#87afff">▄</text>
<text x="378" y="362" fill="#5fafff">▀</text>
<text x="387" y="362" fill="#262626" font-weight="700">Applications</text>
<text x="702" y="362" fill="#444444">│</text>
<text x="729" y="362" fill="#eeeeee" font-weight="700">Users</text>
<text x="234" y="380" fill="#87d75f">▀</text>
<text x="252" y="380" fill="#262626" font-weight="700">Downloads</text>
<text x="369" y="380" fill="#262626" font-weight="700">Containers</text>
<text x="702" y="380" fill="#444444">│</text>
<text x="729" y="380" fill="#808080">[D]</text>
<text x="774" y="380" fill="#d0d0d0">198</text>
<text x="810" y="380" fill="#d0d0d0">GB</text>
<text x="261" y="398" fill="#87d75f">▀</text>
<text x="297" y="398" fill="#87afd7">▄</text>
<text x="306" y="398" fill="#87d7d7">▀</text>
<text x="315" y="398" fill="#262626" font-weight="700">Projects</text>
<text x="414" y="398" fill="#5f87ff">▀</text>
<text x="702" y="398" fill="#444444">│</text>
<text x="729" y="398" fill="#808080">4</text>
<text x="747" y="398" fill="#808080">items</text>
<text x="261" y="416" fill="#87afd7">▀▀</text>
<text x="279" y="416" fill="#262626" font-weight="700">rust</text>
<text x="369" y="416" fill="#262626" font-weight="700">Docker.raw</text>
<text x="702" y="416" fill="#444444">│</text>
<text x="729" y="416" fill="#585858">/Volumes/DustBunny</text>
<text x="900" y="416" fill="#585858">Demo/Use.</text>
<text x="297" y="434" fill="#87afd7">▀</text>
<text x="306" y="434" fill="#262626" font-weight="700">vidnode_modules</text>
<text x="702" y="434" fill="#444444">│</text>
<text x="702" y="452" fill="#444444">│</text>
<text x="702" y="470" fill="#444444">│</text>
<text x="702" y="488" fill="#444444">│</text>
<text x="702" y="506" fill="#444444">│</text>
<text x="702" y="524" fill="#444444">│</text>
<text x="36" y="542" fill="#585858">◎</text>
<text x="72" y="542" fill="#585858">drag</text>
<text x="117" y="542" fill="#585858">and</text>
<text x="153" y="542" fill="#585858">drop</text>
<text x="198" y="542" fill="#585858">files</text>
<text x="252" y="542" fill="#585858">here</text>
<text x="297" y="542" fill="#585858">to</text>
<text x="324" y="542" fill="#585858">collect</text>
<text x="396" y="542" fill="#585858">them</text>
<text x="702" y="542" fill="#444444">│</text>
<text x="729" y="542" fill="#585858">list</text>
<text x="774" y="542" fill="#585858">focus</text>
<text x="702" y="560" fill="#444444">│</text>
<text x="27" y="578" fill="#808080">q</text>
<text x="45" y="578" fill="#808080">quit</text>
<text x="108" y="578" fill="#808080">enter</text>
<text x="162" y="578" fill="#808080">drill</text>
<text x="234" y="578" fill="#808080">backspace</text>
<text x="324" y="578" fill="#808080">parent</text>
<text x="405" y="578" fill="#808080">arrows</text>
<text x="468" y="578" fill="#808080">select</text>
<text x="549" y="578" fill="#808080">tab</text>
<text x="585" y="578" fill="#808080">focus</text>
<text x="657" y="578" fill="#808080">r</text>
<text x="675" y="578" fill="#808080">rescan</text>
<text x="756" y="578" fill="#808080">o</text>
<text x="774" y="578" fill="#808080">open</text>
<text x="837" y="578" fill="#808080">?</text>
<text x="855" y="578" fill="#808080">help</text>
<text x="27" y="596" fill="#d0d0d0">ready</text>
</svg>
